<?xml version="1.0" ?><!DOCTYPE svg  PUBLIC '-//W3C//DTD SVG 1.1//EN'  'http://www.w3.org/Graphics/SVG/1.1/DTD/svg11.dtd'><svg enable-background="new 0 0 88 88" height="88px" id="Livello_1" version="1.1" viewBox="0 0 88 88" width="88px" xml:space="preserve" xmlns="http://www.w3.org/2000/svg" xmlns:xlink="http://www.w3.org/1999/xlink"><g id="Twitter"><g><path clip-rule="evenodd" d="M85.375,16.898c0.613-2.102-0.088-4.377-1.795-5.766    c-0.998-0.81-2.219-1.224-3.448-1.224c-0.939,0-1.88,0.24-2.728,0.731c-1.806,1.04-3.736,1.864-5.769,2.456    c-3.678-2.763-8.238-4.305-12.922-4.305c-10.724,0-19.61,7.836-20.978,17.959c-8.774-1.763-16.754-6.409-22.488-13.223    c-1.04-1.24-2.574-1.947-4.179-1.947c-0.141,0-0.285,0.005-0.429,0.016C8.881,11.734,7.3,12.713,6.39,14.223    c-1.904,3.16-2.91,6.779-2.91,10.468c0,2.461,0.443,4.859,1.28,7.102c-0.893,0.992-1.408,2.291-1.408,3.662v0.195    c0,5.35,2.115,10.313,5.627,14.036c-0.203,0.933-0.157,1.918,0.152,2.856c1.211,3.686,3.416,6.862,6.275,9.281    c-1.92,0.424-3.902,0.64-5.923,0.64c-1.069,0-2.109-0.059-3.094-0.179c-0.219-0.024-0.435-0.037-0.651-0.037    c-2.294,0-4.376,1.445-5.15,3.651c-0.848,2.416,0.093,5.097,2.267,6.449c8.068,5.019,17.386,7.67,26.944,7.67    c31.068,0,49.755-24.32,50.118-48.077c2.544-2.104,4.79-4.539,6.697-7.268c0.693-0.912,1.104-2.051,1.104-3.285    C87.719,19.527,86.792,17.885,85.375,16.898z M74.417,29.27c0.029,0.651,0.045,1.31,0.045,1.966    c0,20.119-15.788,43.32-44.661,43.32c-8.862,0-17.117-2.528-24.059-6.846c1.227,0.147,2.475,0.216,3.742,0.216    c7.353,0,14.124-2.432,19.498-6.521c-6.873-0.117-12.673-4.523-14.663-10.569c0.958,0.179,1.942,0.275,2.955,0.275    c1.427,0,2.816-0.184,4.131-0.533c-7.179-1.395-12.591-7.548-12.591-14.927c0-0.067,0-0.131,0-0.195    c2.118,1.141,4.537,1.827,7.113,1.907c-4.214-2.734-6.985-7.388-6.985-12.671c0-2.792,0.776-5.409,2.125-7.649    c7.74,9.201,19.306,15.263,32.353,15.903c-0.269-1.112-0.408-2.286-0.408-3.467c0-8.412,7.027-15.226,15.7-15.226    c4.513,0,8.588,1.846,11.457,4.811c3.571-0.691,6.937-1.949,9.961-3.694c-1.171,3.552-3.659,6.534-6.897,8.419    c3.168-0.373,6.201-1.187,9.014-2.403C80.14,24.437,77.484,27.123,74.417,29.27z" fill="#303030" fill-rule="evenodd"/></g></g></svg>