<?xml version="1.0" encoding="UTF-8"?>
<svg width="15px" height="16px" viewBox="0 0 15 16" version="1.1" xmlns="http://www.w3.org/2000/svg" xmlns:xlink="http://www.w3.org/1999/xlink">
    <!-- Generator: Sketch 47.1 (45422) - http://www.bohemiancoding.com/sketch -->
    <title>add</title>
    <desc>Created with Sketch.</desc>
    <defs>
        <path d="M8.737437,8.176777 L14.74784,14.187184 C15.04074,14.480078 15.04074,14.954951 14.74784,15.2478445 C14.45495,15.5407377 13.98008,15.5407377 13.68718,15.2478445 L7.676777,9.237437 L1.666369,15.2478445 C1.373476,15.5407377 0.8986021,15.5407377 0.6057089,15.2478445 C0.3128157,14.954951 0.3128157,14.480078 0.6057089,14.187184 L6.616117,8.176777 L0.6057089,2.16637 C0.3128157,1.87348 0.3128157,1.3986 0.6057089,1.10571 C0.8986021,0.81282 1.373476,0.81282 1.666369,1.10571 L7.676777,7.116117 L13.68718,1.10571 C13.98008,0.81282 14.45495,0.81282 14.74784,1.10571 C15.04074,1.3986 15.04074,1.87348 14.74784,2.16637 L8.737437,8.176777 Z" id="path-1"></path>
    </defs>
    <g id="Page-1" stroke="none" stroke-width="1" fill="none" fill-rule="evenodd">
        <g id="add">
            <mask id="mask-2" fill="white">
                <use xlink:href="#path-1"></use>
            </mask>
            <g id="Clip-2"></g>
            <polygon id="Fill-1" fill="#FFFFFF" mask="url(#mask-2)" points="7.676777 -13.03643 28.88998 8.176777 7.676777 29.38998 -13.53643 8.176777"></polygon>
        </g>
    </g>
</svg>