<?xml version="1.0" encoding="UTF-8" standalone="no"?>
<svg
   xmlns:dc="http://purl.org/dc/elements/1.1/"
   xmlns:cc="http://creativecommons.org/ns#"
   xmlns:rdf="http://www.w3.org/1999/02/22-rdf-syntax-ns#"
   xmlns:svg="http://www.w3.org/2000/svg"
   xmlns="http://www.w3.org/2000/svg"
   viewBox="0 0 84 84"
   height="84"
   width="84"
   xml:space="preserve"
   id="svg2"
   version="1.1"><metadata
     id="metadata8"><rdf:RDF><cc:Work
         rdf:about=""><dc:format>image/svg+xml</dc:format><dc:type
           rdf:resource="http://purl.org/dc/dcmitype/StillImage" /></cc:Work></rdf:RDF></metadata><defs
     id="defs6"><clipPath
       id="clipPath20"
       clipPathUnits="userSpaceOnUse"><path
         style="clip-rule:evenodd"
         id="path18"
         d="m -135,111 h 333 c 0.5523,0 1,-0.4477 1,-1 V -68 c 0,-0.55228 -0.4477,-1 -1,-1 h -333 c -0.5523,0 -1,0.44772 -1,1 v 178 c 0,0.5523 0.4477,1 1,1 z" /></clipPath><clipPath
       id="clipPath26"
       clipPathUnits="userSpaceOnUse"><path
         id="path24"
         d="M -156,-365 H 219 V 302 H -156 Z" /></clipPath><clipPath
       id="clipPath32"
       clipPathUnits="userSpaceOnUse"><path
         id="path30"
         d="M -1,-2 H 65 V 64 H -1 Z" /></clipPath><clipPath
       id="clipPath36"
       clipPathUnits="userSpaceOnUse"><path
         id="path34"
         d="M 0,0 H 63 V 63 H 0 Z" /></clipPath><clipPath
       id="clipPath40"
       clipPathUnits="userSpaceOnUse"><path
         id="path38"
         d="M -1,-2 H 65 V 64 H -1 Z" /></clipPath><clipPath
       id="clipPath44"
       clipPathUnits="userSpaceOnUse"><path
         id="path42"
         d="M 0,0 H 63 V 63 H 0 Z" /></clipPath></defs><g
     transform="matrix(1.3333333,0,0,-1.3333333,0,84)"
     id="g10"><g
       id="g12" /><g
       id="g14"><g
         clip-path="url(#clipPath20)"
         id="g16"><g
           clip-path="url(#clipPath26)"
           id="g22"><g
             id="g28" /><g
             id="g78"><g
               id="g76"
               clip-path="url(#clipPath32)"><g
                 id="g46" /><g
                 id="g74"><g
                   id="g72"
                   clip-path="url(#clipPath36)"><g
                     id="g48" /><g
                     id="g70"><g
                       style="opacity:0.26760003"
                       id="g68"
                       clip-path="url(#clipPath40)"><g
                         id="g50" /><g
                         id="g66"><g
                           id="g64"
                           clip-path="url(#clipPath44)"><g
                             id="g54"
                             transform="matrix(1,0,0,-1,2,61)"><path
                               id="path52"
                               style="fill:none;stroke:#6d6f76;stroke-width:2.97550988;stroke-linecap:round;stroke-linejoin:round;stroke-miterlimit:10;stroke-dasharray:none;stroke-opacity:1"
                               d="M 4.959184,0 H 54.55102 C 57.2899,0 59.5102,2.220302 59.5102,4.959184 V 54.53661 c 0,2.73889 -2.2203,4.95919 -4.95918,4.95919 H 4.959184 C 2.220302,59.4958 0,57.2755 0,54.53661 V 4.959184 C 0,2.220302 2.220302,0 4.959184,0 Z" /></g><g
                             id="g58"
                             transform="matrix(1,0,0,-1,15.22449,47.77871)"><path
                               id="path56"
                               style="fill:none;stroke:#6d6f76;stroke-width:2.97550988;stroke-linecap:round;stroke-linejoin:round;stroke-miterlimit:10;stroke-dasharray:none;stroke-opacity:1"
                               d="m 4.959184,9.915966 c 2.738881,0 4.959183,-2.219764 4.959183,-4.957983 C 9.918367,2.219765 7.698065,0 4.959184,0 2.220302,0 0,2.219765 0,4.957983 0,7.696202 2.220302,9.915966 4.959184,9.915966 Z" /></g><g
                             id="g62"
                             transform="matrix(1,0,0,-1,8.612245,37.86275)"><path
                               id="path60"
                               style="fill:none;stroke:#6d6f76;stroke-width:2.97550988;stroke-linecap:round;stroke-linejoin:round;stroke-miterlimit:10;stroke-dasharray:none;stroke-opacity:1"
                               d="M 52.89796,16.52661 36.36735,0 0,36.35854" /></g></g></g></g></g></g></g></g></g></g></g></g></g></svg>