<?xml version="1.0" encoding="UTF-8"?>
<svg width="60px" height="60px" viewBox="0 0 60 60" version="1.1" xmlns="http://www.w3.org/2000/svg" xmlns:xlink="http://www.w3.org/1999/xlink">
    <!-- Generator: Sketch 49.2 (51160) - http://www.bohemiancoding.com/sketch -->
    <title>logo</title>
    <desc>Created with Sketch.</desc>
    <defs>
        <path d="M1,0 L59,0 C59.55228,0 60,0.44772 60,1 L60,59 C60,59.5522847 59.55228,60 59,60 L1,60 C0.4477153,60 0,59.5522847 0,59 L0,1 C0,0.44772 0.4477153,0 1,0 Z M10.44764,12.72 L7.68,12.72 L11.10661,26.23563 L14.21691,26.23563 L16.45739,17.76196 L16.56282,17.76196 L18.8033,26.23563 L21.9136,26.23563 L25.34021,12.72 L22.57256,12.72 L20.30573,21.82721 L20.2003,21.82721 L17.85439,12.72 L15.16582,12.72 L12.81991,21.80081 L12.71448,21.80081 L10.44764,12.72 Z M35.7642,26.23563 L39.11173,26.23563 L36.36385,20.71191 C37.00085,20.36434 37.52582,19.88588 37.93877,19.27653 C38.35173,18.66718 38.5582,17.88956 38.5582,16.94363 C38.5582,15.62374 38.14855,14.58984 37.32923,13.8419 C36.50992,13.09396 35.30293,12.72 33.70823,12.72 L28.5156,12.72 L28.5156,26.23563 L31.57319,26.23563 L31.57319,21.27286 L33.33921,21.27286 L35.7642,26.23563 Z M50.88,23.70145 L44.92297,23.70145 L44.92297,20.74491 L49.95745,20.74491 L49.95745,18.21073 L44.92297,18.21073 L44.92297,15.25418 L50.88,15.25418 L50.88,12.72 L41.86539,12.72 L41.86539,26.23563 L50.88,26.23563 L50.88,23.70145 Z M21.26082,33.57958 L18.20324,33.57958 L18.20324,41.89487 L18.0978,41.89487 L13.32691,33.57958 L10.29568,33.57958 L10.29568,47.09522 L13.35327,47.09522 L13.35327,38.77993 L13.4587,38.77993 L18.25595,47.09522 L21.26082,47.09522 L21.26082,33.57958 Z M35.87582,37.82962 C35.50679,36.40413 34.81489,35.30864 33.80008,34.5431 C32.78527,33.77756 31.60574,33.3948 30.26145,33.3948 C29.11924,33.3948 28.09896,33.66977 27.20057,34.21973 C26.30218,34.76968 25.5949,35.56381 25.07871,36.60212 C24.56252,37.64044 24.30443,38.89432 24.30443,40.3638 C24.30443,41.82448 24.56252,43.07066 25.07871,44.10237 C25.5949,45.13409 26.30218,45.92161 27.20057,46.46497 C28.09896,47.00833 29.11924,47.28 30.26145,47.28 C31.60574,47.28 32.78088,46.90384 33.7869,46.1515 C34.79293,45.39916 35.48044,44.32346 35.84946,42.92438 L32.87094,42.50201 C32.67325,43.18836 32.34707,43.69871 31.89238,44.03308 C31.4377,44.36745 30.89406,44.53464 30.26145,44.53464 C29.4048,44.53464 28.71179,44.21237 28.18242,43.56782 C27.65305,42.92327 27.38837,41.85528 27.38837,40.3638 C27.38837,38.87232 27.65305,37.79552 28.18242,37.13338 C28.71179,36.47123 29.4048,36.14016 30.26145,36.14016 C30.89406,36.14016 31.44648,36.31395 31.91874,36.66152 C32.391,37.00909 32.72597,37.53924 32.92366,38.25198 L35.87582,37.82962 Z M42.1088,33.57958 L39.05121,33.57958 L39.05121,47.09522 L42.1088,47.09522 L42.1088,41.60449 L46.95877,41.60449 L46.95877,47.09522 L50.01636,47.09522 L50.01636,33.57958 L46.95877,33.57958 L46.95877,39.07031 L42.1088,39.07031 L42.1088,33.57958 Z" id="path-1"></path>
        <path d="M0.57319,0.25418 L2.70823,0.25418 C3.26176,0.25418 3.70326,0.40377 4.03275,0.70294 C4.36223,1.00212 4.52697,1.44208 4.52697,2.02283 C4.52697,2.61678 4.35894,3.05564 4.02286,3.33941 C3.68679,3.62319 3.24858,3.76508 2.70823,3.76508 L0.57319,3.76508 L0.57319,0.25418 Z" id="path-3"></path>
    </defs>
    <g id="Page-1" stroke="none" stroke-width="1" fill="none" fill-rule="evenodd">
        <g id="logo">
            <g id="Group-3">
                <mask id="mask-2" fill="white">
                    <use xlink:href="#path-1"></use>
                </mask>
                <g id="Clip-2"></g>
                <polygon id="Fill-1" fill="#FFFFFF" mask="url(#mask-2)" points="-5 65 65 65 65 -5 -5 -5"></polygon>
            </g>
            <g id="Group-6" transform="translate(31.000000, 15.000000)">
                <mask id="mask-4" fill="white">
                    <use xlink:href="#path-3"></use>
                </mask>
                <g id="Clip-5"></g>
                <polygon id="Fill-4" fill="#FFFFFF" mask="url(#mask-4)" points="-4.42681 8.76508 9.52697 8.76508 9.52697 -4.74582 -4.42681 -4.74582"></polygon>
            </g>
        </g>
    </g>
</svg>