<?xml version="1.0" encoding="UTF-8"?>
<svg width="25px" height="28px" viewBox="0 0 25 28" version="1.1" xmlns="http://www.w3.org/2000/svg" xmlns:xlink="http://www.w3.org/1999/xlink">
    <!-- Generator: Sketch 52.6 (67491) - http://www.bohemiancoding.com/sketch -->
    <title>trash</title>
    <desc>Created with Sketch.</desc>
    <g id="Page-1" stroke="none" stroke-width="1" fill="none" fill-rule="evenodd">
        <g id="trash" fill="#FFFFFF" fill-rule="nonzero">
            <path d="M9.09090909,10.7954545 L9.09090909,21.0227273 C9.09090909,21.188447 9.03764205,21.3245739 8.93110795,21.431108 C8.82457386,21.537642 8.68844697,21.5909091 8.52272727,21.5909091 L7.38636364,21.5909091 C7.22064394,21.5909091 7.08451705,21.537642 6.97798295,21.431108 C6.87144886,21.3245739 6.81818182,21.188447 6.81818182,21.0227273 L6.81818182,10.7954545 C6.81818182,10.6297348 6.87144886,10.493608 6.97798295,10.3870739 C7.08451705,10.2805398 7.22064394,10.2272727 7.38636364,10.2272727 L8.52272727,10.2272727 C8.68844697,10.2272727 8.82457386,10.2805398 8.93110795,10.3870739 C9.03764205,10.493608 9.09090909,10.6297348 9.09090909,10.7954545 Z M13.6363636,10.7954545 L13.6363636,21.0227273 C13.6363636,21.188447 13.5830966,21.3245739 13.4765625,21.431108 C13.3700284,21.537642 13.2339015,21.5909091 13.0681818,21.5909091 L11.9318182,21.5909091 C11.7660985,21.5909091 11.6299716,21.537642 11.5234375,21.431108 C11.4169034,21.3245739 11.3636364,21.188447 11.3636364,21.0227273 L11.3636364,10.7954545 C11.3636364,10.6297348 11.4169034,10.493608 11.5234375,10.3870739 C11.6299716,10.2805398 11.7660985,10.2272727 11.9318182,10.2272727 L13.0681818,10.2272727 C13.2339015,10.2272727 13.3700284,10.2805398 13.4765625,10.3870739 C13.5830966,10.493608 13.6363636,10.6297348 13.6363636,10.7954545 Z M18.1818182,10.7954545 L18.1818182,21.0227273 C18.1818182,21.188447 18.1285511,21.3245739 18.022017,21.431108 C17.915483,21.537642 17.7793561,21.5909091 17.6136364,21.5909091 L16.4772727,21.5909091 C16.311553,21.5909091 16.1754261,21.537642 16.068892,21.431108 C15.962358,21.3245739 15.9090909,21.188447 15.9090909,21.0227273 L15.9090909,10.7954545 C15.9090909,10.6297348 15.962358,10.493608 16.068892,10.3870739 C16.1754261,10.2805398 16.311553,10.2272727 16.4772727,10.2272727 L17.6136364,10.2272727 C17.7793561,10.2272727 17.915483,10.2805398 18.022017,10.3870739 C18.1285511,10.493608 18.1818182,10.6297348 18.1818182,10.7954545 Z M20.4545455,23.6505682 L20.4545455,6.81818182 L4.54545455,6.81818182 L4.54545455,23.6505682 C4.54545455,23.9109848 4.58688447,24.1506866 4.66974432,24.3696733 C4.75260417,24.58866 4.8384233,24.7484612 4.9272017,24.8490767 C5.01598011,24.9496922 5.078125,25 5.11363636,25 L19.8863636,25 C19.921875,25 19.9840199,24.9496922 20.0727983,24.8490767 C20.1615767,24.7484612 20.2473958,24.58866 20.3302557,24.3696733 C20.4131155,24.1506866 20.4545455,23.9109848 20.4545455,23.6505682 Z M8.52272727,4.54545455 L16.4772727,4.54545455 L15.625,2.46803977 C15.5421402,2.36150568 15.4415246,2.29640152 15.3231534,2.27272727 L9.69460227,2.27272727 C9.57623106,2.29640152 9.47561553,2.36150568 9.39275568,2.46803977 L8.52272727,4.54545455 Z M25,5.11363636 L25,6.25 C25,6.4157197 24.946733,6.55184659 24.8401989,6.65838068 C24.7336648,6.76491477 24.5975379,6.81818182 24.4318182,6.81818182 L22.7272727,6.81818182 L22.7272727,23.6505682 C22.7272727,24.6330492 22.4491004,25.4823627 21.8927557,26.1985085 C21.336411,26.9146544 20.6676136,27.2727273 19.8863636,27.2727273 L5.11363636,27.2727273 C4.33238636,27.2727273 3.66358902,26.9264915 3.10724432,26.2340199 C2.55089962,25.5415483 2.27272727,24.704072 2.27272727,23.7215909 L2.27272727,6.81818182 L0.568181818,6.81818182 C0.402462121,6.81818182 0.266335227,6.76491477 0.159801136,6.65838068 C0.0532670455,6.55184659 0,6.4157197 0,6.25 L0,5.11363636 C0,4.94791667 0.0532670455,4.81178977 0.159801136,4.70525568 C0.266335227,4.59872159 0.402462121,4.54545455 0.568181818,4.54545455 L6.0546875,4.54545455 L7.29758523,1.58025568 C7.47514205,1.1422822 7.79474432,0.769412879 8.25639205,0.461647727 C8.71803977,0.153882576 9.18560606,0 9.65909091,0 L15.3409091,0 C15.8143939,0 16.2819602,0.153882576 16.743608,0.461647727 C17.2052557,0.769412879 17.524858,1.1422822 17.7024148,1.58025568 L18.9453125,4.54545455 L24.4318182,4.54545455 C24.5975379,4.54545455 24.7336648,4.59872159 24.8401989,4.70525568 C24.946733,4.81178977 25,4.94791667 25,5.11363636 Z" id="Shape"></path>
        </g>
    </g>
</svg>