<?xml version="1.0" encoding="UTF-8"?>
<svg width="16px" height="18px" viewBox="0 0 16 18" version="1.1" xmlns="http://www.w3.org/2000/svg" xmlns:xlink="http://www.w3.org/1999/xlink">
    <!-- Generator: Sketch 52.6 (67491) - http://www.bohemiancoding.com/sketch -->
    <title>trash</title>
    <desc>Created with Sketch.</desc>
    <g id="Page-1" stroke="none" stroke-width="1" fill="none" fill-rule="evenodd">
        <g id="trash" fill="#FFFFFF" fill-rule="nonzero">
            <path d="M5.81818182,6.90909088 L5.81818182,13.4545455 C5.81818182,13.5606061 5.78409091,13.6477273 5.71590909,13.7159091 C5.64772727,13.7840909 5.56060606,13.8181818 5.45454545,13.8181818 L4.72727273,13.8181818 C4.62121212,13.8181818 4.53409091,13.7840909 4.46590909,13.7159091 C4.39772727,13.6477273 4.36363636,13.5606061 4.36363636,13.4545455 L4.36363636,6.90909088 C4.36363636,6.80303027 4.39772727,6.71590912 4.46590909,6.6477273 C4.53409091,6.57954547 4.62121212,6.54545453 4.72727273,6.54545453 L5.45454545,6.54545453 C5.56060606,6.54545453 5.64772727,6.57954547 5.71590909,6.6477273 C5.78409091,6.71590912 5.81818182,6.80303027 5.81818182,6.90909088 Z M8.7272727,6.90909088 L8.7272727,13.4545455 C8.7272727,13.5606061 8.69318182,13.6477273 8.625,13.7159091 C8.55681818,13.7840909 8.46969696,13.8181818 8.36363635,13.8181818 L7.63636365,13.8181818 C7.53030304,13.8181818 7.44318182,13.7840909 7.375,13.7159091 C7.30681818,13.6477273 7.2727273,13.5606061 7.2727273,13.4545455 L7.2727273,6.90909088 C7.2727273,6.80303027 7.30681818,6.71590912 7.375,6.6477273 C7.44318182,6.57954547 7.53030304,6.54545453 7.63636365,6.54545453 L8.36363635,6.54545453 C8.46969696,6.54545453 8.55681818,6.57954547 8.625,6.6477273 C8.69318182,6.71590912 8.7272727,6.80303027 8.7272727,6.90909088 Z M11.6363636,6.90909088 L11.6363636,13.4545455 C11.6363636,13.5606061 11.6022727,13.6477273 11.5340909,13.7159091 C11.4659091,13.7840909 11.3787879,13.8181818 11.2727273,13.8181818 L10.5454545,13.8181818 C10.4393939,13.8181818 10.3522727,13.7840909 10.2840909,13.7159091 C10.2159091,13.6477273 10.1818182,13.5606061 10.1818182,13.4545455 L10.1818182,6.90909088 C10.1818182,6.80303027 10.2159091,6.71590912 10.2840909,6.6477273 C10.3522727,6.57954547 10.4393939,6.54545453 10.5454545,6.54545453 L11.2727273,6.54545453 C11.3787879,6.54545453 11.4659091,6.57954547 11.5340909,6.6477273 C11.6022727,6.71590912 11.6363636,6.80303027 11.6363636,6.90909088 Z M13.0909091,15.1363636 L13.0909091,4.36363636 L2.90909091,4.36363636 L2.90909091,15.1363636 C2.90909091,15.3030303 2.93560606,15.4564394 2.98863636,15.5965909 C3.04166667,15.7367424 3.09659091,15.8390152 3.15340909,15.9034091 C3.21022727,15.967803 3.25,16 3.27272727,16 L12.7272727,16 C12.75,16 12.7897727,15.967803 12.8465909,15.9034091 C12.9034091,15.8390152 12.9583333,15.7367424 13.0113636,15.5965909 C13.0643939,15.4564394 13.0909091,15.3030303 13.0909091,15.1363636 Z M5.45454545,2.90909091 L10.5454545,2.90909091 L10,1.57954545 C9.94696973,1.51136364 9.88257574,1.46969697 9.80681818,1.45454545 L6.20454545,1.45454545 C6.12878788,1.46969697 6.06439394,1.51136364 6.01136364,1.57954545 L5.45454545,2.90909091 Z M16,3.27272727 L16,4 C16,4.10606061 15.9659091,4.19318182 15.8977273,4.26136364 C15.8295455,4.32954545 15.7424243,4.36363636 15.6363636,4.36363636 L14.5454545,4.36363636 L14.5454545,15.1363636 C14.5454545,15.7651515 14.3674243,16.3087121 14.0113636,16.7670454 C13.655303,17.2253788 13.2272727,17.4545455 12.7272727,17.4545455 L3.27272727,17.4545455 C2.77272727,17.4545455 2.34469697,17.2329546 1.98863636,16.7897727 C1.63257576,16.3465909 1.45454545,15.8106061 1.45454545,15.1818182 L1.45454545,4.36363636 L0.363636364,4.36363636 C0.257575757,4.36363636 0.170454545,4.32954545 0.102272727,4.26136364 C0.0340909091,4.19318182 0,4.10606061 0,4 L0,3.27272727 C0,3.16666667 0.0340909091,3.07954545 0.102272727,3.01136364 C0.170454545,2.94318182 0.257575757,2.90909091 0.363636364,2.90909091 L3.875,2.90909091 L4.67045455,1.01136364 C4.78409091,0.731060608 4.98863636,0.492424243 5.28409091,0.295454545 C5.57954545,0.0984848486 5.87878788,0 6.18181818,0 L9.81818182,0 C10.1212121,0 10.4204545,0.0984848486 10.7159091,0.295454545 C11.0113636,0.492424243 11.2159091,0.731060608 11.3295455,1.01136364 L12.125,2.90909091 L15.6363636,2.90909091 C15.7424243,2.90909091 15.8295455,2.94318182 15.8977273,3.01136364 C15.9659091,3.07954545 16,3.16666667 16,3.27272727 Z" id="Shape"></path>
        </g>
    </g>
</svg>