<?xml version="1.0" encoding="UTF-8"?>
<svg width="22px" height="21px" viewBox="0 0 22 21" version="1.1" xmlns="http://www.w3.org/2000/svg" xmlns:xlink="http://www.w3.org/1999/xlink">
    <!-- Generator: Sketch 64 (93537) - https://sketch.com -->
    <title>Path</title>
    <desc>Created with Sketch.</desc>
    <g id="Page-1" stroke="none" stroke-width="1" fill="none" fill-rule="evenodd">
        <path d="M22,11.0028683 C21.9919675,14.9306998 19.8977206,18.5585065 16.5003536,20.5297553 L15.6341593,21.0297232 L14.6342236,19.2985845 L10.1345131,11.5028361 C9.85838852,11.0244502 10.0223537,10.4127986 10.5007396,10.136674 C10.9791255,9.86054941 11.5907771,10.0245146 11.8669017,10.5029005 L14.0580107,14.2976563 C15.5784058,12.8843983 15.9347411,10.6144874 14.9205197,8.80334014 C13.9062984,6.9921929 11.7847482,6.10986887 9.78531075,6.66767613 C7.78587325,7.22548338 6.42747613,9.07865038 6.49731251,11.1532641 C6.5671489,13.2278778 8.04709367,14.9854996 10.0795167,15.4075849 L11.2856891,17.4949506 C11.1906952,17.4999503 11.0957013,17.5024501 11.0007074,17.5024501 C7.82720187,17.5085545 5.11141798,15.2261845 4.57115931,12.098998 C4.03090064,8.97181154 5.82351079,5.91056274 8.81511745,4.85157068 C11.8067241,3.79257863 15.1260592,5.04426155 16.6735573,7.8148976 C18.2210554,10.5855337 17.5460271,14.0682097 15.0754452,16.0600429 L16.337864,18.2524019 C19.5446619,15.8944158 20.8215212,11.7098997 19.4774786,7.96327451 C18.1334361,4.21664932 14.4877963,1.79800189 10.5133712,2.01616602 C6.53894609,2.23433014 3.17994096,5.0374765 2.25405748,8.90870245 C1.328174,12.7799284 3.05537456,16.7995457 6.50099691,18.7923671 L5.50106125,20.5260056 C0.878040306,17.856903 -1.16111584,12.253699 0.665042318,7.23756725 C2.49120048,2.22143552 7.65541193,-0.759331681 12.9123753,0.168443766 C18.1693387,1.09621921 22.0012271,5.66466357 22,11.0028683 L22,11.0028683 Z" id="Path" fill="#000000"></path>
    </g>
</svg>