<?xml version="1.0" encoding="UTF-8"?>
<svg width="18px" height="17px" viewBox="0 0 18 17" version="1.1" xmlns="http://www.w3.org/2000/svg" xmlns:xlink="http://www.w3.org/1999/xlink">
    <!-- Generator: Sketch 64 (93537) - https://sketch.com -->
    <title>iconfinder_app_store_115410</title>
    <desc>Created with Sketch.</desc>
    <g id="Page-1" stroke="none" stroke-width="1" fill="none" fill-rule="evenodd">
        <g id="iconfinder_app_store_115410" fill="#000000" fill-rule="nonzero">
            <path d="M0,10.0278 L0,7.5852 C0,7.3614 0.1838,7.1784 0.409,7.1784 L4.7252,7.1784 L2.846,10.435 L0.409,10.435 C0.1838,10.435 0,10.2524 0,10.0278 M3.0746,15.0292 L1.6972,15.9624 C1.5118,16.0886 1.3808,16.0086 1.4064,15.7862 L1.5902,14.1896 C1.6158,13.9672 1.7962,13.8764 1.9912,13.9874 L3.0572,14.5964 C3.252,14.7082 3.26,14.904 3.0746,15.0292 M3.4054,14.1292 L2.3394,13.5202 C2.1444,13.4086 2.0758,13.159 2.1892,12.9652 L7.1254,4.408 C7.2374,4.2136 7.4898,4.1454 7.6846,4.2582 L8.7506,4.8658 C8.9456,4.9786 9.0128,5.2284 8.9008,5.4222 L3.9646,13.9796 C3.8528,14.1738 3.6002,14.2404 3.4054,14.1292 M7.1622,10.435 L9.0414,7.1784 L10.1234,7.1784 L11.6494,10.435 L7.1622,10.435 Z M13.2826,11.407 C12.8558,11.1938 10.7304,6.3114 10.186,5.0376 C9.6408,3.7638 7.9948,0.3732 8.5274,0.1092 C8.9062,-0.08 10.266,2.59 11.2854,4.193 C12.3032,5.796 14.4318,9.9292 14.6938,10.4 C14.9544,10.8718 14.443,11.2654 14.1586,11.383 C13.874,11.5008 13.7092,11.6182 13.2826,11.407 M14.6792,13.6508 L14.037,12.6408 C13.9042,12.4308 13.9732,12.1714 14.1886,12.0606 L14.8008,11.7474 C15.0166,11.6376 15.2868,11.7266 15.4016,11.9462 L15.9082,12.9164 C16.0234,13.1358 15.945,13.4174 15.7372,13.5414 L15.2996,13.802 C15.0916,13.9274 14.8122,13.859 14.6792,13.6508 M17.0428,16.3 C16.9086,15.8722 15.8842,15.8438 15.4256,15.1994 C14.9654,14.5572 15.3458,14.2264 15.5054,14.0736 C17.3656,13.0304 17.0428,16.3 17.0428,16.3 M18,10.0278 C18,10.2524 17.8162,10.435 17.591,10.435 L15.4304,10.435 C15.4066,10.3094 15.368,10.1838 15.3026,10.066 C15.2464,9.9658 15.1042,9.6956 14.9062,9.3188 C14.6202,8.775 14.2096,7.9974 13.7698,7.1784 L17.5906,7.1784 C17.8158,7.1784 17.9996,7.3614 17.9996,7.5852 L18,10.0278 L18,10.0278 Z" id="Shape"></path>
        </g>
    </g>
</svg>