<?xml version="1.0" encoding="UTF-8"?>
<svg width="18px" height="11px" viewBox="0 0 18 11" version="1.1" xmlns="http://www.w3.org/2000/svg" xmlns:xlink="http://www.w3.org/1999/xlink">
    <!-- Generator: Sketch 64 (93537) - https://sketch.com -->
    <title>iconfinder_AWS_4923041 (1)</title>
    <desc>Created with Sketch.</desc>
    <g id="Page-1" stroke="none" stroke-width="1" fill="none" fill-rule="evenodd">
        <g id="iconfinder_AWS_4923041-(1)" fill="#000000" fill-rule="nonzero">
            <path d="M5.32928571,5.04 C5.25761582,4.89985023 5.19324409,4.75608669 5.13642857,4.60928571 C5.09084958,4.43517685 5.06922183,4.25566652 5.07214286,4.07571429 L5.07214286,4.07571429 L5.07214286,2.14714286 C5.11931805,1.59691965 4.93531309,1.0518923 4.56428571,0.642857143 C4.12453141,0.282822241 3.56213647,0.107650047 2.99571429,0.154285714 C2.68130127,0.152348759 2.36796756,0.191245357 2.06357143,0.27 C1.79331463,0.333871364 1.53203127,0.431042861 1.28571429,0.559285714 C1.22096784,0.58890827 1.16381072,0.632875289 1.11857143,0.687857143 C1.08761816,0.751768117 1.07430187,0.822788316 1.08,0.893571429 L1.08,1.18928571 C1.08,1.31142857 1.11857143,1.37571429 1.20214286,1.37571429 L1.29857143,1.37571429 L1.53,1.28571429 C1.73974096,1.20367674 1.9544541,1.13496853 2.17285714,1.08 C2.38357152,1.03025728 2.59921356,1.00438024 2.81571429,1.00285714 C3.16476218,0.967015525 3.51431383,1.06590185 3.79285714,1.27928571 C4.00625257,1.55037447 4.10543093,1.89403902 4.06928571,2.23714286 L4.06928571,2.67428571 C3.83142857,2.61642857 3.60642857,2.57142857 3.38142857,2.53928571 C3.16821178,2.51168156 2.95355462,2.49665556 2.73857143,2.49428571 C2.21396747,2.4656248 1.69706132,2.63030286 1.28571429,2.95714286 C0.92314198,3.25963977 0.721317,3.71315237 0.739285714,4.185 C0.718356794,4.61394433 0.87943005,5.03180104 1.18285714,5.33571429 C1.50492997,5.64418345 1.93953784,5.80687089 2.385,5.78571429 C3.06727719,5.7961303 3.71658392,5.49280452 4.14642857,4.96285714 C4.20186684,5.08412936 4.26410877,5.2021744 4.33285714,5.31642857 C4.39374735,5.41571096 4.46484791,5.50835713 4.545,5.59285714 C4.59140013,5.6436778 4.6562345,5.67377947 4.725,5.67642857 C4.78079295,5.67741043 4.83524046,5.65926126 4.87928571,5.625 L5.25857143,5.37428571 C5.31530109,5.34703678 5.35643648,5.29531898 5.37022156,5.23391271 C5.38400664,5.17250644 5.3689246,5.10816841 5.32928571,5.05928571 L5.32928571,5.04 Z M4.08857143,3.58714286 C4.09213574,3.76249738 4.07268411,3.93756197 4.03071429,4.10785714 C4.0026081,4.24981136 3.94332341,4.38375084 3.85714286,4.5 C3.70354227,4.67357102 3.50911464,4.80613531 3.29142857,4.88571429 C3.08434309,4.9554675 2.86708266,4.99022917 2.64857143,4.98857143 C2.28918108,4.9734093 1.97451931,4.74273108 1.85193038,4.4045547 C1.72934144,4.06637832 1.82309339,3.68765014 2.08928571,3.44571429 C2.35068831,3.2712874 2.6631307,3.18978069 2.97642857,3.21428571 C3.16285714,3.21428571 3.34928571,3.21428571 3.54214286,3.24642857 C3.735,3.27857143 3.915,3.31071429 4.08857143,3.34928571 L4.08857143,3.58714286 Z M7.07142857,5.33571429 C7.08986326,5.42459399 7.13207854,5.50680269 7.19357143,5.57357143 C7.26229688,5.61768033 7.34360277,5.63800681 7.425,5.63142857 L7.93928571,5.63142857 C8.02278686,5.63896182 8.1064309,5.61861598 8.17714286,5.57357143 C8.23852383,5.50504474 8.2787181,5.42019016 8.29285714,5.32928571 L9.21214286,1.47214286 L10.1442857,5.32928571 C10.1523957,5.41874838 10.1909747,5.50271464 10.2535714,5.56714286 C10.3245624,5.61737396 10.4113367,5.64020931 10.4978571,5.63142857 L11.0121429,5.63142857 C11.092209,5.63565335 11.1713942,5.61302902 11.2371429,5.56714286 C11.3016185,5.50416351 11.3463039,5.42372988 11.3657143,5.33571429 L12.8571429,0.713571429 C12.8789789,0.667075513 12.8920546,0.616951874 12.8957143,0.565714286 C12.8984278,0.533628697 12.8984278,0.501371303 12.8957143,0.469285714 C12.9024939,0.42836497 12.8891154,0.386686999 12.8597856,0.357357235 C12.8304559,0.32802747 12.7887779,0.314648983 12.7478571,0.321428571 L12.1885714,0.321428571 C12.1075565,0.318885634 12.0274299,0.33891728 11.9571429,0.379285714 C11.9003865,0.445911212 11.8606752,0.525333902 11.8414286,0.610714286 L10.8,4.62214286 L9.84214286,0.642857143 C9.83124476,0.556057516 9.79296336,0.47499103 9.73285714,0.411428571 C9.6597866,0.366332604 9.57410637,0.346039918 9.48857143,0.353571429 L9,0.353571429 C8.91360988,0.338613835 8.82498264,0.361919812 8.75712559,0.417439216 C8.68926854,0.472958619 8.64887412,0.555215814 8.64642857,0.642857143 L7.71428571,4.57714286 L6.71785714,0.642857143 C6.69963903,0.557113424 6.65980697,0.477449292 6.60214286,0.411428571 C6.53183377,0.365446621 6.44785957,0.345020464 6.36428571,0.353571429 L5.78571429,0.353571429 C5.68928571,0.353571429 5.64428571,0.405 5.64428571,0.501428571 C5.64954496,0.582825012 5.66687732,0.662987159 5.69571429,0.739285714 L7.07142857,5.33571429 Z M13.5,5.445 C13.7170845,5.55594486 13.9486097,5.63600498 14.1878571,5.68285714 C14.4890814,5.75441506 14.7975375,5.79108466 15.1071429,5.79216186 C15.3991432,5.79320352 15.6896069,5.74985074 15.9685714,5.66357143 C16.2029099,5.59588884 16.4214386,5.48225394 16.6114286,5.32928571 C16.7940422,5.18776022 16.9432838,5.00779236 17.0485714,4.80214286 C17.15452,4.58629057 17.2074143,4.34826627 17.2028571,4.10785714 C17.2071708,3.80614872 17.1097997,3.51177095 16.9264286,3.27214286 C16.702907,3.00258971 16.4058589,2.80381313 16.0714286,2.7 L15.2228571,2.43 C14.9878581,2.36397823 14.7690097,2.25017704 14.58,2.09571429 C14.4631705,1.9857753 14.3978637,1.83183789 14.4,1.67142857 C14.3880977,1.45489131 14.4969603,1.24953703 14.6828571,1.13785714 C14.9142882,1.02275299 15.170151,0.965404415 15.4285714,0.970714286 C15.8250534,0.963494137 16.2181586,1.04475052 16.5792857,1.20857143 C16.6497039,1.24480243 16.7258017,1.26871886 16.8042857,1.27928571 C16.8942857,1.27928571 16.9457143,1.215 16.9457143,1.08642857 L16.9457143,0.803571429 C16.9501447,0.734431601 16.9296145,0.665997787 16.8878571,0.610714286 C16.8414339,0.545287724 16.779614,0.49229924 16.7078571,0.456428571 C16.6274115,0.413212242 16.5435594,0.376661338 16.4571429,0.347142857 C16.3478571,0.347142857 16.2385714,0.282857143 16.1164286,0.257142857 L15.7307143,0.186428571 L15.3257143,0.186428571 C15.0716527,0.181968165 14.8182911,0.214450413 14.5735714,0.282857143 C14.3417706,0.347516579 14.1238533,0.454296027 13.9307143,0.597857143 C13.7530443,0.727150096 13.6059969,0.893950135 13.5,1.08642857 C13.3925503,1.28352864 13.3372301,1.50480933 13.3392857,1.72928571 C13.3420595,2.04282862 13.4457507,2.34713976 13.635,2.59714286 C13.8824014,2.89605724 14.217464,3.10968772 14.5928571,3.20785714 L15.4607143,3.47785714 C15.6849355,3.52812614 15.8928061,3.63427284 16.065,3.78642857 C16.1742057,3.89785345 16.2343781,4.04828448 16.2321429,4.20428571 C16.2390592,4.43810678 16.1184183,4.65722994 15.9171429,4.77642857 C15.6491365,4.92027396 15.3465083,4.98703019 15.0428571,4.96928571 C14.8031726,4.97092723 14.5639861,4.94722407 14.3292857,4.89857143 C14.1081872,4.8534652 13.8926387,4.7844897 13.6864286,4.69285714 L13.5385714,4.62857143 L13.4292857,4.62857143 C13.3392857,4.62857143 13.2878571,4.69285714 13.2878571,4.815 L13.2878571,5.14285714 C13.2884307,5.20071057 13.3015927,5.25774557 13.3264286,5.31 C13.3808971,5.37349893 13.4522127,5.42029975 13.5321429,5.445 L13.5,5.445 Z M15.9557143,8.24785714 C13.8139957,9.14951289 11.5165533,9.62341499 9.19285714,9.64285714 C6.06727634,9.63913559 2.99653075,8.82159943 0.282857143,7.27071429 C0.0642857143,7.14214286 -0.102857143,7.36714286 0.0771428571,7.53428571 C2.52335374,9.74002599 5.70625697,10.9508134 9,10.9285714 C11.5984866,10.9377833 14.1392634,10.1625551 16.29,8.70428571 C16.5985714,8.46 16.3157143,8.1 15.9878571,8.24785714 L15.9557143,8.24785714 Z M17.8842857,7.12285714 C17.6721429,6.85928571 15.8207143,6.62785714 14.67,7.41857143 C14.4964286,7.54714286 14.5285714,7.71428571 14.715,7.68857143 C15.3578571,7.61142857 16.7721429,7.44428571 17.0228571,7.76571429 C17.2735714,8.08714286 16.74,9.41785714 16.5021429,10.0157143 C16.4314286,10.1892857 16.5857143,10.2664286 16.7464286,10.125 C17.8714286,9.23785714 18.1478571,7.39285714 17.9292857,7.12285714 L17.8842857,7.12285714 Z" id="Shape"></path>
        </g>
    </g>
</svg>