<?xml version="1.0" encoding="UTF-8"?>
<svg width="16px" height="18px" viewBox="0 0 16 18" version="1.1" xmlns="http://www.w3.org/2000/svg" xmlns:xlink="http://www.w3.org/1999/xlink">
    <!-- Generator: Sketch 64 (93537) - https://sketch.com -->
    <title>ic_analytics</title>
    <desc>Created with Sketch.</desc>
    <g id="Page-1" stroke="none" stroke-width="1" fill="none" fill-rule="evenodd">
        <g id="ic_analytics" transform="translate(-1.000000, 0.000000)">
            <rect id="Rectangle" x="0" y="0" width="18" height="18"></rect>
            <g id="Group" transform="translate(1.875000, 0.750000)" fill-rule="nonzero" stroke="#000000" stroke-width="1.5">
                <path d="M10.3125,1.96875 L10.3125,14.34375 C10.3125,15.7284375 11.2678125,16.5 12.28125,16.5 C13.21875,16.5 14.25,15.84375 14.25,14.34375 L14.25,2.0625 C14.25,0.793125 13.3125,0 12.28125,0 C11.25,0 10.3125,0.8746875 10.3125,1.96875 Z" id="Path"></path>
                <path d="M5.15625,8.25 L5.15625,14.34375 C5.15625,15.7284375 6.1115625,16.5 7.125,16.5 C8.0625,16.5 9.09375,15.84375 9.09375,14.34375 L9.09375,8.34375 C9.09375,7.074375 8.15625,6.28125 7.125,6.28125 C6.09375,6.28125 5.15625,7.1559375 5.15625,8.25 Z" id="Path"></path>
                <circle id="Oval" cx="1.96875" cy="14.53125" r="1.96875"></circle>
            </g>
        </g>
    </g>
</svg>