<?xml version="1.0" encoding="UTF-8"?>
<svg width="20px" height="18px" viewBox="0 0 20 18" version="1.1" xmlns="http://www.w3.org/2000/svg" xmlns:xlink="http://www.w3.org/1999/xlink">
    <!-- Generator: Sketch 64 (93537) - https://sketch.com -->
    <title>sentry</title>
    <desc>Created with Sketch.</desc>
    <g id="Page-1" stroke="none" stroke-width="1" fill="none" fill-rule="evenodd">
        <g id="sentry" fill="#000000" fill-rule="nonzero">
            <path d="M11.5866667,0.990666667 C11.259074,0.423802027 10.6540489,0.0746577034 9.99933333,0.0746577034 C9.34461777,0.0746577034 8.73959266,0.423802027 8.412,0.990666667 L5.79866667,5.51733333 L6.46533333,5.9 C10.1873881,8.05271649 12.5822399,11.9281405 12.8426667,16.22 L11.008,16.22 C10.7500823,12.5800164 8.70171046,9.30561911 5.54133333,7.48133333 L4.87466667,7.1 L2.44,11.3333333 L3.10666667,11.716 C4.74375115,12.6776157 5.84796657,14.3383636 6.10133333,16.22 L1.91066667,16.22 C1.80151634,16.2217887 1.69986015,16.1646613 1.64463203,16.0704973 C1.58940391,15.9763334 1.5891624,15.8597252 1.644,15.7653333 L2.812,13.7426667 C2.41747079,13.4100339 1.96565247,13.1520456 1.47866667,12.9813333 L0.322666667,15 C-0.00451117626,15.5672385 -0.00430050963,16.2659164 0.323219343,16.8329575 C0.650739196,17.3999986 1.25583474,17.7492983 1.91066667,17.7493333 L7.67733333,17.7493333 L7.67733333,16.9853333 C7.67810186,14.5345443 6.50024663,12.232914 4.512,10.8 L5.42933333,9.21066667 C7.97886034,10.9754593 9.5013367,13.877929 9.504,16.9786667 L9.504,17.744 L14.3906667,17.744 L14.3906667,16.98 C14.386175,12.1350625 11.9371149,7.61954526 7.87866667,4.97333333 L9.73333333,1.756 C9.78743004,1.66246874 9.8872845,1.60486917 9.99533333,1.60486917 C10.1033822,1.60486917 10.2032366,1.66246874 10.2573333,1.756 L18.3453333,15.7653333 C18.4001709,15.8597252 18.3999294,15.9763334 18.3447013,16.0704973 C18.2894732,16.1646613 18.187817,16.2217887 18.0786667,16.22 L16.1866667,16.22 C16.2106667,16.7306667 16.2133333,17.2413333 16.1866667,17.7506667 L18.0853333,17.7506667 C18.7401653,17.7506667 19.3452608,17.401332 19.6727807,16.8342909 C20.0003005,16.2672498 20.0005112,15.5685718 19.6733333,15.0013333 L11.5866667,0.990666667 Z" id="Path"></path>
        </g>
    </g>
</svg>