<?xml version="1.0" encoding="UTF-8"?>
<svg width="21px" height="20px" viewBox="0 0 21 20" version="1.1" xmlns="http://www.w3.org/2000/svg" xmlns:xlink="http://www.w3.org/1999/xlink">
    <!-- Generator: Sketch 48.2 (47327) - http://www.bohemiancoding.com/sketch -->
    <title>add</title>
    <desc>Created with Sketch.</desc>
    <defs>
        <path d="M0.75,0 C1.16421,0 1.5,0.33579 1.5,0.75 L1.5,19.25 C1.5,19.6642136 1.16421,20 0.75,20 C0.33579,20 0,19.6642136 0,19.25 L0,0.75 C0,0.33579 0.33579,0 0.75,0 Z" id="path-1"></path>
        <path d="M20.75,1 C20.75,1.414214 20.41421,1.75 20,1.75 L1.5,1.75 C1.085786,1.75 0.75,1.414214 0.75,1 C0.75,0.58579 1.085786,0.25 1.5,0.25 L20,0.25 C20.41421,0.25 20.75,0.58579 20.75,1 Z" id="path-3"></path>
    </defs>
    <g id="Page-1" stroke="none" stroke-width="1" fill="none" fill-rule="evenodd">
        <g id="add">
            <g id="Group-3" transform="translate(10.000000, 0.000000)">
                <mask id="mask-2" fill="white">
                    <use xlink:href="#path-1"></use>
                </mask>
                <g id="Clip-2"></g>
                <polygon id="Fill-1" fill="#000000" mask="url(#mask-2)" points="-5 25 6.5 25 6.5 -5 -5 -5"></polygon>
            </g>
            <g id="Group-6" transform="translate(0.000000, 9.000000)">
                <mask id="mask-4" fill="white">
                    <use xlink:href="#path-3"></use>
                </mask>
                <g id="Clip-5"></g>
                <polygon id="Fill-4" fill="#000000" mask="url(#mask-4)" points="25.75 -4.75 25.75 6.75 -4.25 6.75 -4.25 -4.75"></polygon>
            </g>
        </g>
    </g>
</svg>