<?xml version="1.0" encoding="UTF-8"?>
<svg width="18px" height="18px" viewBox="0 0 18 18" version="1.1" xmlns="http://www.w3.org/2000/svg" xmlns:xlink="http://www.w3.org/1999/xlink">
    <!-- Generator: Sketch 52.5 (67469) - http://www.bohemiancoding.com/sketch -->
    <title>albumIcon</title>
    <desc>Created with Sketch.</desc>
    <defs>
        <path d="M2,3.5 C1.171573,3.5 0.5,2.82843 0.5,2 C0.5,1.17157 1.171573,0.5 2,0.5 C2.828427,0.5 3.5,1.17157 3.5,2 C3.5,2.82843 2.828427,3.5 2,3.5 Z" id="path-1"></path>
        <path d="M2,3.5 C1.171573,3.5 0.5,2.82843 0.5,2 C0.5,1.17157 1.171573,0.5 2,0.5 C2.828427,0.5 3.5,1.17157 3.5,2 C3.5,2.82843 2.828427,3.5 2,3.5 Z" id="path-3"></path>
        <path d="M2,3.5 C1.17157,3.5 0.5,2.82843 0.5,2 C0.5,1.17157 1.17157,0.5 2,0.5 C2.82843,0.5 3.5,1.17157 3.5,2 C3.5,2.82843 2.82843,3.5 2,3.5 Z" id="path-5"></path>
        <path d="M2,3.5 C1.171573,3.5 0.5,2.828427 0.5,2 C0.5,1.171573 1.171573,0.5 2,0.5 C2.828427,0.5 3.5,1.171573 3.5,2 C3.5,2.828427 2.828427,3.5 2,3.5 Z" id="path-7"></path>
        <path d="M2,3.5 C1.171573,3.5 0.5,2.828427 0.5,2 C0.5,1.171573 1.171573,0.5 2,0.5 C2.828427,0.5 3.5,1.171573 3.5,2 C3.5,2.828427 2.828427,3.5 2,3.5 Z" id="path-9"></path>
        <path d="M2,3.5 C1.17157,3.5 0.5,2.828427 0.5,2 C0.5,1.171573 1.17157,0.5 2,0.5 C2.82843,0.5 3.5,1.171573 3.5,2 C3.5,2.828427 2.82843,3.5 2,3.5 Z" id="path-11"></path>
        <path d="M2,3.5 C1.171573,3.5 0.5,2.828427 0.5,2 C0.5,1.171573 1.171573,0.5 2,0.5 C2.828427,0.5 3.5,1.171573 3.5,2 C3.5,2.828427 2.828427,3.5 2,3.5 Z" id="path-13"></path>
        <path d="M2,3.5 C1.171573,3.5 0.5,2.828427 0.5,2 C0.5,1.171573 1.171573,0.5 2,0.5 C2.828427,0.5 3.5,1.171573 3.5,2 C3.5,2.828427 2.828427,3.5 2,3.5 Z" id="path-15"></path>
        <path d="M2,3.5 C1.17157,3.5 0.5,2.828427 0.5,2 C0.5,1.171573 1.17157,0.5 2,0.5 C2.82843,0.5 3.5,1.171573 3.5,2 C3.5,2.828427 2.82843,3.5 2,3.5 Z" id="path-17"></path>
    </defs>
    <g id="albumIcon" stroke="none" stroke-width="1" fill="none" fill-rule="evenodd">
        <g id="Group-3">
            <mask id="mask-2" fill="white">
                <use xlink:href="#path-1"></use>
            </mask>
            <g id="Clip-2"></g>
            <polygon id="Fill-1" fill="#FFFFFF" mask="url(#mask-2)" points="-4.5 -4.5 8.5 -4.5 8.5 8.5 -4.5 8.5"></polygon>
        </g>
        <g id="Group-6" transform="translate(7.000000, 0.000000)">
            <mask id="mask-4" fill="white">
                <use xlink:href="#path-3"></use>
            </mask>
            <g id="Clip-5"></g>
            <polygon id="Fill-4" fill="#FFFFFF" mask="url(#mask-4)" points="-4.5 -4.5 8.5 -4.5 8.5 8.5 -4.5 8.5"></polygon>
        </g>
        <g id="Group-9" transform="translate(14.000000, 0.000000)">
            <mask id="mask-6" fill="white">
                <use xlink:href="#path-5"></use>
            </mask>
            <g id="Clip-8"></g>
            <polygon id="Fill-7" fill="#FFFFFF" mask="url(#mask-6)" points="-4.5 -4.5 8.5 -4.5 8.5 8.5 -4.5 8.5"></polygon>
        </g>
        <g id="Group-12" transform="translate(0.000000, 7.000000)">
            <mask id="mask-8" fill="white">
                <use xlink:href="#path-7"></use>
            </mask>
            <g id="Clip-11"></g>
            <polygon id="Fill-10" fill="#FFFFFF" mask="url(#mask-8)" points="-4.5 -4.5 8.5 -4.5 8.5 8.5 -4.5 8.5"></polygon>
        </g>
        <g id="Group-15" transform="translate(7.000000, 7.000000)">
            <mask id="mask-10" fill="white">
                <use xlink:href="#path-9"></use>
            </mask>
            <g id="Clip-14"></g>
            <polygon id="Fill-13" fill="#FFFFFF" mask="url(#mask-10)" points="-4.5 -4.5 8.5 -4.5 8.5 8.5 -4.5 8.5"></polygon>
        </g>
        <g id="Group-18" transform="translate(14.000000, 7.000000)">
            <mask id="mask-12" fill="white">
                <use xlink:href="#path-11"></use>
            </mask>
            <g id="Clip-17"></g>
            <polygon id="Fill-16" fill="#FFFFFF" mask="url(#mask-12)" points="-4.5 -4.5 8.5 -4.5 8.5 8.5 -4.5 8.5"></polygon>
        </g>
        <g id="Group-21" transform="translate(0.000000, 14.000000)">
            <mask id="mask-14" fill="white">
                <use xlink:href="#path-13"></use>
            </mask>
            <g id="Clip-20"></g>
            <polygon id="Fill-19" fill="#FFFFFF" mask="url(#mask-14)" points="-4.5 -4.5 8.5 -4.5 8.5 8.5 -4.5 8.5"></polygon>
        </g>
        <g id="Group-24" transform="translate(7.000000, 14.000000)">
            <mask id="mask-16" fill="white">
                <use xlink:href="#path-15"></use>
            </mask>
            <g id="Clip-23"></g>
            <polygon id="Fill-22" fill="#FFFFFF" mask="url(#mask-16)" points="-4.5 -4.5 8.5 -4.5 8.5 8.5 -4.5 8.5"></polygon>
        </g>
        <g id="Group-27" transform="translate(14.000000, 14.000000)">
            <mask id="mask-18" fill="white">
                <use xlink:href="#path-17"></use>
            </mask>
            <g id="Clip-26"></g>
            <polygon id="Fill-25" fill="#FFFFFF" mask="url(#mask-18)" points="-4.5 -4.5 8.5 -4.5 8.5 8.5 -4.5 8.5"></polygon>
        </g>
    </g>
</svg>