<?xml version="1.0" encoding="UTF-8"?>
<svg width="22px" height="22px" viewBox="0 0 22 22" version="1.1" xmlns="http://www.w3.org/2000/svg" xmlns:xlink="http://www.w3.org/1999/xlink">
    <!-- Generator: Sketch 49.2 (51160) - http://www.bohemiancoding.com/sketch -->
    <title>feed</title>
    <desc>Created with Sketch.</desc>
    <defs></defs>
    <g id="Page-1" stroke="none" stroke-width="1" fill="none" fill-rule="evenodd" stroke-linecap="round" stroke-linejoin="round">
        <g id="feed" transform="translate(1.000000, -1.000000)" stroke="#FFFFFF" stroke-width="1.5">
            <path d="M1,2 L19,2 C19.55228,2 20,2.4477153 20,3 L20,9 C20,9.552285 19.55228,10 19,10 L1,10 C0.4477153,10 0,9.552285 0,9 L0,3 C0,2.4477153 0.4477153,2 1,2 Z" id="Stroke-1"></path>
            <path d="M1,14 L19,14 C19.55228,14 20,14.4477153 20,15 L20,21 C20,21.552285 19.55228,22 19,22 L1,22 C0.4477153,22 0,21.552285 0,21 L0,15 C0,14.4477153 0.4477153,14 1,14 Z" id="Stroke-3"></path>
        </g>
    </g>
</svg>