<svg xmlns="http://www.w3.org/2000/svg" width="40" height="40" viewBox="0 0 40 40">
    <g fill="#FFF" fill-rule="evenodd">
        <path d="M39.333 0c.369 0 .667.298.667.667v38.666a.667.667 0 0 1-.667.667H.667A.667.667 0 0 1 0 39.333V.667C0 .298.298 0 .667 0h38.666zM20.174 22.263c-.761 0-1.441.184-2.04.55-.6.367-1.07.896-1.415 1.588-.344.693-.516 1.529-.516 2.508 0 .974.172 1.805.516 2.493.344.687.816 1.212 1.415 1.575.599.362 1.279.543 2.04.543.896 0 1.68-.25 2.35-.752.671-.502 1.13-1.219 1.376-2.152l-1.986-.281c-.132.457-.35.797-.652 1.02-.304.223-.666.335-1.088.335-.57 0-1.033-.215-1.386-.645-.353-.43-.53-1.141-.53-2.136 0-.994.177-1.712.53-2.153a1.69 1.69 0 0 1 1.386-.663c.422 0 .79.116 1.105.348.315.232.538.585.67 1.06l1.968-.281c-.246-.95-.707-1.68-1.384-2.191-.676-.51-1.463-.766-2.359-.766zm-11.29.123h-2.02v9.01h2.038v-5.543h.07l3.199 5.544h2.003v-9.01h-2.039v5.543h-.07l-3.18-5.544zm19.189 0h-2.039v9.01h2.039v-3.66h3.233v3.66h2.038v-9.01h-2.038v3.66h-3.233v-3.66zM6.965 8.48H5.12l2.284 9.01h2.074l1.494-5.649h.07l1.494 5.65h2.073l2.284-9.011h-1.845l-1.51 6.071h-.071L11.903 8.48H10.11l-1.564 6.054h-.07L6.964 8.48zm15.507 0H19.01v9.01h2.039v-3.308h1.177l1.617 3.308h2.231l-1.831-3.682c.424-.232.774-.55 1.05-.957.275-.406.412-.925.412-1.555 0-.88-.273-1.57-.819-2.068-.546-.499-1.35-.748-2.414-.748zm11.448 0h-6.01v9.01h6.01v-1.689h-3.971V13.83h3.356v-1.69h-3.356v-1.97h3.971V8.48z"/>
        <path d="M21.049 10.17v2.34h1.423c.36 0 .653-.095.877-.284.224-.189.336-.481.336-.877 0-.388-.11-.68-.33-.88-.22-.2-.514-.3-.883-.3H21.05z"/>
    </g>
</svg>
