<svg xmlns="http://www.w3.org/2000/svg" width="50" height="50" viewBox="0 0 50 50">
    <g fill="#FFF" fill-rule="evenodd">
        <path d="M.833 0h48.334c.46 0 .833.373.833.833v48.334c0 .46-.373.833-.833.833H.833A.833.833 0 0 1 0 49.167V.833C0 .373.373 0 .833 0zm7.873 10.6H6.4l2.856 11.263h2.591l1.867-7.061h.088l1.867 7.061h2.592L21.117 10.6H18.81l-1.889 7.59h-.087l-1.955-7.59h-2.24l-1.956 7.567h-.088L8.706 10.6zm21.097 11.263h2.79l-2.29-4.603c.531-.29.969-.688 1.313-1.196s.516-1.156.516-1.944c0-1.1-.342-1.962-1.024-2.585-.683-.623-1.689-.935-3.018-.935h-4.327v11.263h2.548v-4.136h1.472l2.02 4.136zM42.4 19.751h-4.964v-2.464h4.195v-2.111h-4.195v-2.464H42.4V10.6h-7.512v11.263H42.4v-2.112zm-24.683 8.232H15.17v6.93h-.087l-3.976-6.93H8.58v11.263h2.548v-6.93h.088l3.997 6.93h2.504V27.983zm12.18 3.542c-.308-1.188-.885-2.101-1.73-2.74-.846-.637-1.829-.956-2.95-.956-.951 0-1.801.23-2.55.687-.749.459-1.338 1.12-1.768 1.986-.43.865-.645 1.91-.645 3.134 0 1.218.215 2.256.645 3.116.43.86 1.02 1.516 1.768 1.969.749.453 1.599.679 2.55.679 1.121 0 2.1-.313 2.939-.94.838-.627 1.411-1.524 1.719-2.69l-2.483-.352c-.164.572-.436.998-.815 1.276-.379.279-.832.418-1.36.418-.713 0-1.29-.268-1.732-.805-.44-.538-.661-1.428-.661-2.67 0-1.243.22-2.14.661-2.693.441-.551 1.019-.827 1.733-.827.527 0 .987.145 1.381.434.394.29.673.732.837 1.326l2.46-.352zm5.194-3.542h-2.548v11.263h2.548V34.67h4.041v4.576h2.548V27.983h-2.548v4.576h-4.041v-4.576z"/>
        <path d="M26.311 12.712v2.926h1.78c.45 0 .815-.119 1.095-.355.28-.237.42-.602.42-1.097 0-.484-.137-.85-.412-1.1-.275-.25-.643-.374-1.104-.374h-1.779z"/>
    </g>
</svg>
