<svg xmlns="http://www.w3.org/2000/svg" width="50" height="50" viewBox="0 0 50 50">
    <g fill="none" fill-rule="evenodd">
        <path fill="#000" d="M16.024 0h17.952c5.572 0 7.592.58 9.63 1.67a11.358 11.358 0 0 1 4.724 4.725c1.09 2.037 1.67 4.057 1.67 9.63v17.95c0 5.573-.58 7.593-1.67 9.63a11.358 11.358 0 0 1-4.725 4.725c-2.037 1.09-4.057 1.67-9.63 1.67h-17.95c-5.573 0-7.593-.58-9.63-1.67a11.358 11.358 0 0 1-4.725-4.725C.58 41.568 0 39.548 0 33.975v-17.95c0-5.573.58-7.593 1.67-9.63A11.358 11.358 0 0 1 6.395 1.67C8.432.58 10.452 0 16.025 0z"/>
        <path fill="#FFF" d="M11.858 14.2l1.522 6.096h.07l1.575-6.096h1.805l1.575 6.114h.07l1.522-6.114h1.858l-2.3 9.073h-2.088l-1.504-5.688h-.07l-1.505 5.688H12.3L10 14.2h1.858zm16.995 9.073l-1.628-3.331h-1.186v3.331h-2.052V14.2h3.486c1.07 0 1.88.251 2.43.753.55.502.825 1.196.825 2.082 0 .635-.138 1.157-.415 1.566-.278.41-.63.73-1.058.964l1.845 3.708h-2.247zm-2.814-7.372v2.357h1.434c.362 0 .657-.095.882-.286.226-.19.339-.485.339-.884 0-.39-.111-.685-.332-.886-.221-.2-.518-.3-.89-.3H26.04zM39 21.571v1.702h-6.051V14.2H39v1.701h-3.999v1.985h3.38v1.701H35v1.985H39zm-19.883 6.632v9.073H17.1l-3.22-5.582h-.072v5.582h-2.052v-9.073h2.035l3.202 5.582h.071v-5.582h2.053zm9.81 2.853l-1.981.284c-.133-.479-.358-.835-.675-1.068a1.826 1.826 0 0 0-1.112-.35c-.575 0-1.04.222-1.396.667-.355.444-.533 1.167-.533 2.168 0 1.001.178 1.718.533 2.151.356.433.82.649 1.396.649.425 0 .79-.112 1.095-.337.305-.224.524-.567.657-1.027l2 .283c-.249.94-.71 1.661-1.386 2.166-.675.505-1.464.758-2.366.758-.767 0-1.452-.182-2.055-.547-.603-.365-1.078-.894-1.424-1.586-.347-.693-.52-1.53-.52-2.51 0-.986.173-1.828.52-2.525.346-.697.821-1.23 1.424-1.6.603-.368 1.288-.553 2.055-.553.902 0 1.694.257 2.375.77.682.515 1.146 1.25 1.394 2.207zm4.185-2.853v3.686h3.256v-3.686h2.052v9.073h-2.052V33.59h-3.256v3.686h-2.053v-9.073h2.053z"/>
    </g>
</svg>
