<svg xmlns="http://www.w3.org/2000/svg" width="54" height="50" viewBox="0 0 54 50">
    <g fill="none" fill-rule="evenodd">
        <path fill="#000" d="M16.852 0h20.307c5.572 0 7.592.58 9.63 1.67a11.358 11.358 0 0 1 4.725 4.725c1.09 2.037 1.67 4.057 1.67 9.63v17.95c0 5.573-.58 7.593-1.67 9.63a11.358 11.358 0 0 1-4.725 4.725C44.75 49.42 42.73 50 37.159 50H16.852c-5.572 0-7.593-.58-9.63-1.67a11.358 11.358 0 0 1-4.725-4.725c-1.09-2.037-1.67-4.057-1.67-9.63v-17.95c0-5.573.58-7.593 1.67-9.63A11.358 11.358 0 0 1 7.222 1.67C9.259.58 11.28 0 16.852 0z"/>
        <path fill="#FFF" d="M13.244 14.2l1.593 6.096h.074l1.65-6.096h1.89l1.648 6.114h.074l1.594-6.114h1.945l-2.408 9.073h-2.187l-1.575-5.688h-.074l-1.575 5.688h-2.186L11.298 14.2h1.946zm17.796 9.073l-1.705-3.331h-1.241v3.331h-2.15V14.2h3.65c1.121 0 1.97.251 2.546.753.576.502.864 1.196.864 2.082 0 .635-.146 1.157-.436 1.566-.29.41-.66.73-1.107.964l1.932 3.708H31.04zm-2.946-7.372v2.357h1.5c.38 0 .688-.095.924-.286.237-.19.355-.485.355-.884 0-.39-.116-.685-.348-.886-.231-.2-.542-.3-.93-.3h-1.501zm13.57 5.67v1.702h-6.336V14.2h6.337v1.701h-4.187v1.985h3.538v1.701h-3.538v1.985h4.187zm-20.82 6.632v9.073h-2.111l-3.373-5.582h-.074v5.582h-2.149v-9.073h2.13l3.354 5.582h.075v-5.582h2.149zm10.274 2.853l-2.075.284c-.14-.479-.375-.835-.706-1.068a1.974 1.974 0 0 0-1.165-.35c-.603 0-1.09.222-1.462.667-.372.444-.558 1.167-.558 2.168 0 1.001.186 1.718.558 2.151.372.433.86.649 1.462.649.444 0 .826-.112 1.146-.337.32-.224.549-.567.688-1.027l2.094.283c-.26.94-.743 1.661-1.45 2.166-.707.505-1.533.758-2.478.758-.803 0-1.52-.182-2.152-.547-.632-.365-1.129-.894-1.492-1.586-.362-.693-.544-1.53-.544-2.51 0-.986.182-1.828.544-2.525.363-.697.86-1.23 1.492-1.6.631-.368 1.349-.553 2.152-.553.945 0 1.774.257 2.487.77.713.515 1.2 1.25 1.46 2.207zm4.381-2.853v3.686h3.41v-3.686h2.149v9.073h-2.15V33.59H35.5v3.686H33.35v-9.073h2.15z"/>
    </g>
</svg>
